<svg width="24" height="20" viewBox="0 0 24 20" fill="none" xmlns="http://www.w3.org/2000/svg">
<path d="M5.33325 18.3333V3.33334C5.33325 3.20397 5.36337 3.07637 5.42123 2.96066C5.47909 2.84495 5.56309 2.74429 5.66659 2.66667C6.53207 2.01756 7.58473 1.66667 8.66659 1.66667C11.1666 1.66667 12.8333 3.33334 14.7774 3.33334C15.8885 3.33334 16.7405 3.11112 17.3333 2.66667C17.4571 2.57382 17.6043 2.51727 17.7584 2.50337C17.9125 2.48947 18.0675 2.51877 18.2059 2.58798C18.3444 2.65719 18.4608 2.76358 18.5421 2.89523C18.6235 3.02688 18.6666 3.17858 18.6666 3.33334V11.6667C18.6666 11.796 18.6365 11.9236 18.5786 12.0393C18.5208 12.1551 18.4367 12.2557 18.3333 12.3333C17.4678 12.9824 16.4151 13.3333 15.3333 13.3333C12.8333 13.3333 11.1666 11.6667 8.66659 11.6667C7.43668 11.6667 6.24994 12.12 5.33325 12.94" stroke="#6B7280" stroke-width="1.66667" stroke-linecap="round" stroke-linejoin="round"/>
</svg>
