<svg width="429" height="340" viewBox="0 0 429 340" fill="none" xmlns="http://www.w3.org/2000/svg">
<path d="M13.8194 160.483L10.337 150.915L48.3519 137.079L51.8343 146.646L38.6786 151.435L51.1156 185.605L39.4122 189.865L26.9751 155.694L13.8194 160.483ZM72.6698 177.76L60.7302 144.956L72.5191 140.666L84.4587 173.469L72.6698 177.76ZM65.381 139.394C63.7863 139.974 62.2278 139.945 60.7053 139.306C59.1828 138.667 58.1521 137.607 57.6131 136.126C57.0742 134.646 57.1825 133.171 57.938 131.703C58.6936 130.235 59.8687 129.21 61.4633 128.63C63.0721 128.045 64.6307 128.074 66.139 128.718C67.6615 129.357 68.6922 130.417 69.2311 131.898C69.7701 133.378 69.6618 134.853 68.9062 136.321C68.1649 137.784 66.9898 138.808 65.381 139.394ZM110.246 164.761C106.686 166.056 103.383 166.461 100.335 165.973C97.2829 165.472 94.6191 164.2 92.3441 162.158C90.0639 160.102 88.3123 157.394 87.0894 154.034C85.8664 150.674 85.47 147.48 85.9001 144.454C86.3251 141.413 87.5483 138.726 89.5696 136.395C91.5857 134.048 94.3735 132.227 97.9329 130.932C101.151 129.761 104.147 129.331 106.921 129.644C109.704 129.937 112.129 130.908 114.197 132.558C116.26 134.194 117.816 136.433 118.867 139.275L107.933 143.255C107.149 141.589 106.174 140.461 105.007 139.87C103.85 139.259 102.616 139.192 101.306 139.669C100.281 140.042 99.493 140.667 98.9418 141.545C98.3855 142.409 98.1114 143.516 98.1195 144.868C98.1225 146.205 98.4505 147.77 99.1034 149.564C99.7564 151.358 100.514 152.776 101.376 153.816C102.234 154.842 103.156 155.515 104.142 155.833C105.123 156.137 106.127 156.102 107.152 155.729C108.02 155.413 108.717 154.934 109.241 154.291C109.759 153.635 110.083 152.84 110.211 151.907C110.348 150.954 110.252 149.892 109.922 148.722L120.857 144.742C121.866 147.648 122.121 150.409 121.623 153.026C121.119 155.628 119.904 157.94 117.98 159.963C116.07 161.98 113.492 163.579 110.246 164.761ZM142.218 143.643L137.204 129.602L138.742 129.042L142.676 115.131L155.917 110.311L148.84 132.332L145.508 133.545L142.218 143.643ZM134.455 155.272L118.535 111.534L130.324 107.243L146.244 150.982L134.455 155.272ZM154.701 147.903L142.457 137.655L147.098 126.485L168.198 142.991L154.701 147.903ZM189.271 135.998C185.768 137.273 182.506 137.702 179.485 137.286C176.472 136.851 173.824 135.622 171.54 133.6C169.265 131.558 167.485 128.771 166.2 125.24C164.966 121.851 164.572 118.641 165.016 115.609C165.461 112.578 166.672 109.904 168.651 107.587C170.629 105.271 173.313 103.496 176.702 102.263C179.179 101.361 181.561 100.929 183.849 100.967C186.136 101.005 188.258 101.499 190.216 102.447C192.168 103.381 193.907 104.747 195.433 106.546C196.958 108.345 198.195 110.547 199.143 113.153L200.138 115.887L170.837 126.551L168.474 120.059L186.926 113.343C186.57 112.408 186.027 111.671 185.298 111.13C184.578 110.569 183.754 110.233 182.826 110.119C181.907 109.986 180.956 110.098 179.974 110.456C179.02 110.803 178.219 111.328 177.572 112.031C176.92 112.72 176.482 113.508 176.257 114.396C176.046 115.279 176.1 116.203 176.419 117.167L178.968 124.172C179.352 125.226 179.914 126.085 180.656 126.75C181.398 127.415 182.268 127.833 183.264 128.002C184.261 128.171 185.343 128.043 186.511 127.619C187.322 127.323 188.021 126.94 188.608 126.468C189.208 125.992 189.673 125.452 190.001 124.849C190.325 124.231 190.489 123.575 190.494 122.88L201.258 118.962C201.717 121.375 201.561 123.672 200.792 125.855C200.017 128.024 198.659 129.985 196.718 131.74C194.786 133.475 192.303 134.894 189.271 135.998ZM221.306 86.5117L224.415 95.0544L202.802 102.921L199.693 94.3782L221.306 86.5117ZM201.018 84.9954L212.807 80.7046L223.767 110.817C223.933 111.273 224.151 111.629 224.422 111.885C224.687 112.127 225.012 112.267 225.397 112.304C225.776 112.328 226.222 112.246 226.734 112.059C227.09 111.93 227.488 111.737 227.926 111.48C228.379 111.219 228.709 111.018 228.917 110.878L233.641 118.543C233.171 118.891 232.487 119.358 231.587 119.943C230.702 120.523 229.603 121.093 228.291 121.651C225.637 122.778 223.265 123.327 221.175 123.298C219.079 123.254 217.291 122.639 215.811 121.453C214.331 120.266 213.188 118.521 212.382 116.219L201.018 84.9954ZM247.252 64.6849L263.171 108.423L251.297 112.745L239.357 79.9414L239.101 80.0347L231.616 89.2407L227.947 79.1603L236.317 68.6648L247.252 64.6849ZM275.91 103.787L272.801 95.244L284.205 75.8079C284.961 74.5171 285.58 73.3402 286.064 72.2773C286.557 71.195 286.857 70.1586 286.964 69.1683C287.086 68.1728 286.96 67.1625 286.587 66.1374C286.177 65.0126 285.585 64.1397 284.811 63.5186C284.051 62.8923 283.173 62.5184 282.178 62.397C281.177 62.2614 280.129 62.3931 279.032 62.7921C277.936 63.1911 277.048 63.7642 276.369 64.5113C275.704 65.2533 275.299 66.1343 275.154 67.1544C275.009 68.1745 275.16 69.2967 275.605 70.5212L264.329 74.6254C263.21 71.5501 262.936 68.6505 263.509 65.9267C264.082 63.203 265.411 60.7845 267.495 58.6713C269.58 56.5581 272.317 54.8848 275.705 53.6515C279.208 52.3767 282.445 51.8353 285.417 52.0273C288.399 52.1999 290.955 53.0431 293.086 54.557C295.231 56.0658 296.799 58.1798 297.789 60.8992C298.4 62.5793 298.66 64.3792 298.569 66.2989C298.472 68.2044 297.885 70.49 296.808 73.1557C295.73 75.8213 294.031 79.1487 291.71 83.1376L288.853 88.0471L288.946 88.3034L306.032 82.0849L309.483 91.5672L275.91 103.787ZM336.279 82.4915C332.919 83.7145 329.721 84.2093 326.685 83.9759C323.659 83.723 321.017 82.8222 318.761 81.2734C316.518 79.7194 314.888 77.5878 313.869 74.8788L325.402 70.6813C325.994 72.1749 327.016 73.1655 328.467 73.6531C329.932 74.1356 331.448 74.0917 333.014 73.5217C334.225 73.0812 335.199 72.4363 335.938 71.5869C336.672 70.7233 337.128 69.7186 337.308 68.5729C337.488 67.4273 337.34 66.2234 336.864 64.9615C336.412 63.6749 335.752 62.6576 334.883 61.9097C334.009 61.1475 333.016 60.6785 331.904 60.5028C330.787 60.3128 329.623 60.4381 328.413 60.8786C327.16 61.3346 326.111 62.063 325.266 63.0639C324.43 64.0454 323.957 65.1607 323.847 66.4099L312.679 68.153L305.619 43.4409L335.006 32.745L338.457 42.2273L318.809 49.3786L321.469 59.3428L321.725 59.2495C321.926 57.6766 322.709 56.1502 324.073 54.6702C325.432 53.176 327.222 52.0247 329.443 51.2163C332.048 50.2679 334.589 50.0283 337.066 50.4975C339.556 50.9615 341.781 52.0463 343.74 53.7518C345.709 55.4379 347.191 57.6718 348.187 60.4533C349.31 63.495 349.569 66.4645 348.962 69.3617C348.365 72.2395 346.993 74.827 344.846 77.124C342.694 79.4068 339.839 81.196 336.279 82.4915ZM381.037 66.2009C378.489 67.1285 375.923 67.6108 373.341 67.6478C370.767 67.6654 368.282 67.1269 365.884 66.0325C363.486 64.9381 361.274 63.1795 359.248 60.7569C357.235 58.329 355.513 55.1263 354.082 51.1488C352.806 47.5984 352.1 44.2433 351.966 41.0835C351.846 37.9186 352.256 35.0363 353.197 32.4367C354.151 29.8319 355.604 27.5778 357.556 25.6743C359.502 23.7566 361.906 22.277 364.768 21.2354C367.986 20.0642 371.044 19.6523 373.944 19.9997C376.844 20.347 379.398 21.2958 381.607 22.8459C383.825 24.3766 385.508 26.3438 386.657 28.7473L374.954 33.007C374.232 31.8667 373.277 31.1907 372.087 30.9787C370.907 30.7474 369.69 30.8597 368.437 31.3157C365.945 32.2226 364.51 33.9706 364.13 36.5596C363.764 39.1435 364.21 42.2061 365.466 45.7475L365.723 45.6542C365.791 44.1137 366.214 42.6618 366.991 41.2985C367.769 39.9352 368.812 38.7252 370.12 37.6685C371.429 36.6118 372.916 35.7804 374.582 35.174C377.23 34.2102 379.761 33.9661 382.175 34.4417C384.604 34.9122 386.752 35.9847 388.619 37.6592C390.486 39.3337 391.9 41.5119 392.86 44.1938C394.014 47.3209 394.271 50.3312 393.631 53.2245C393.006 56.1127 391.612 58.6839 389.449 60.9383C387.287 63.1926 384.483 64.9468 381.037 66.2009ZM377.687 57.2622C378.869 56.832 379.817 56.1806 380.531 55.3079C381.26 54.4301 381.709 53.428 381.88 52.3018C382.065 51.1703 381.932 50.0092 381.483 48.8184C381.056 47.603 380.411 46.6285 379.548 45.8948C378.693 45.1416 377.705 44.663 376.582 44.4588C375.474 44.2494 374.329 44.3598 373.148 44.7899C372.279 45.106 371.532 45.5554 370.905 46.1381C370.288 46.7014 369.812 47.3662 369.479 48.1327C369.14 48.8849 368.954 49.7024 368.92 50.5852C368.896 51.4486 369.04 52.3314 369.352 53.2336C369.802 54.4244 370.461 55.3938 371.33 56.1417C372.198 56.8897 373.187 57.3683 374.295 57.5777C375.403 57.7871 376.534 57.6819 377.687 57.2622Z" fill="#FF7A00" fill-opacity="0.05"/>
</svg>
